# xmcd CD database file
#
# Track frame offsets:
#	150
#	14869
#	28867
#	43580
#	57215
#	73759
#	88934
#	102416
#	117288
#	129839
#	146757
#	158627
#	171328
#	186388
#	200643
#	214329
#	227073
#	241688
#	256203
#	271376
#	285473
#	299581
#
# Disc length: 4174 seconds
#
# Revision: 0
# Processed by: cddbd v1.5.2PL0 Copyright (c) Steve Scherf et al.
# Submitted via: CDex 1.50Beta7
#
DISCID=58104c16
DTITLE=VÁRIOS - BARRETÃO 2007
DYEAR=2007
DGENRE=Country
TTITLE0=VAMOS FAZER UM TROPÉ - EMÍLIO E EDUARDO
TTITLE1=DE LATINHA NA MÃO - LEONARDO
TTITLE2=PRA DÁ UM PICOTE - RICK E RENNER
TTITLE3=QUEBRADEIRA  - DANIEL
TTITLE4=EU MÁ FUI DE VOCÊ - GINO E GENO
TTITLE5=A GENTE VAI - EDSONE HUDSON
TTITLE6=BÃODEMAISDACONTA - TEODORO E SAMPAIO
TTITLE7=QUE PESCAR QUE NADA - BRUNO E MARRONE
TTITLE8=MULHER ÉSEMPRE MULHER - CHITÃOZINHO E XORORÓ
TTITLE9=EUSÓ QUERO PESCAR - ROBY E ROGER
TTITLE10=TÁ NERVOSO VAI PESCAR - ATAIDE E ALEXANDRE
TTITLE11=NÓS ENRROLA MAIS NÃO CASA - HUGO E TIAGO
TTITLE12=CASEI COM A TIA - GUILHERME E SANTIAGO
TTITLE13=TÁ BOMBOANDO - CHICO AMADO E XODÓ
TTITLE14=CÊ TÁ QUERENDO O QUE - RICK E RENNER
TTITLE15=FOGO NOFACHO - TEODOROE SAMPAIO
TTITLE16=TÔFICANDO COM ELA - GINO E GENO
TTITLE17=ALÔ GOIÁS - LEONARDO
TTITLE18=GANHO A VIDA NO GOGÓ JULIANO CEZAR
TTITLE19=ELA ENCASQUETOU - EDSON E HUDSON
TTITLE20=MÚSICA BONUS
TTITLE21=MÚSICA BONUS
EXTD=YEAR: 2007
EXTT0=
EXTT1=
EXTT2=
EXTT3=
EXTT4=
EXTT5=
EXTT6=
EXTT7=
EXTT8=
EXTT9=
EXTT10=
EXTT11=
EXTT12=
EXTT13=
EXTT14=
EXTT15=
EXTT16=
EXTT17=
EXTT18=
EXTT19=
EXTT20=
EXTT21=
PLAYORDER=
